<svg xmlns="http://www.w3.org/2000/svg" viewBox="0 0 96 96" role="img" aria-labelledby="title desc">
  <title id="title">Caffeinated Innovations LLC mark</title>
  <desc id="desc">A geometric CI mark in green, gold, and blue.</desc>
  <rect width="96" height="96" rx="18" fill="#0b3d2f"/>
  <path d="M24 48c0-15.5 10.8-26 26.2-26 8.2 0 15.5 3.3 20 9.2l-9.8 8.4c-2.5-3.3-5.8-5.1-10-5.1-7 0-11.7 5.3-11.7 13.5s4.7 13.5 11.7 13.5c4.2 0 7.5-1.8 10-5.1l9.8 8.4C65.7 70.7 58.4 74 50.2 74 34.8 74 24 63.5 24 48Z" fill="#ffffff"/>
  <path d="M70 22h10v52H70V22Z" fill="#bf8b22"/>
  <path d="M16 24h9v48h-9V24Z" fill="#1f5d8f"/>
</svg>
